# xmcd
#
# Track frame offsets:
#	150
#	20698
#	40209
#	58466
#	78144
#	92288
#	112873
#	126491
#	138998
#	155084
#	171887
#	184710
#	196421
#
# Disc length: 2843 seconds
#
# Revision: 1
# Processed by: cddbd v1.5.2PL0 Copyright (c) Steve Scherf et al.
# Submitted via: audiograbber 1.83.01
#
DISCID=ad0b190d
DTITLE=Benny and Joyce and Friends - Leonardo Barmusik Vol. 3 - Benny and Joyce and
DTITLE=Friends
DYEAR=2008
DGENRE=Barmusik
TTITLE0=Shape of my Heart
TTITLE1=You´ve got a Friend
TTITLE2=Mornin´
TTITLE3=Carry On
TTITLE4=Little ole wine drinker me
TTITLE5=Just the way you are
TTITLE6=How long
TTITLE7=Samba Town
TTITLE8=What a fool believes
TTITLE9=Your Song
TTITLE10=Song from a shell
TTITLE11=Crying time
TTITLE12=That´s what friends are for
EXTD=
EXTT0=
EXTT1=
EXTT2=
EXTT3=
EXTT4=
EXTT5=
EXTT6=
EXTT7=
EXTT8=
EXTT9=
EXTT10=
EXTT11=
EXTT12=
PLAYORDER=
